<svg preserveAspectRatio="none" width="100%" height="100%" overflow="visible" style="display: block;" viewBox="0 0 29 29" fill="none" xmlns="http://www.w3.org/2000/svg">
<g id="ico-/-24-/-ai-labs">
<g id="Icon-color">
<path d="M16.1768 14.8024C16.0915 15.187 15.7912 15.4874 15.4066 15.5726L11.3617 16.4717C10.3023 16.7071 10.3023 18.2171 11.3617 18.4525L15.4066 19.3516C15.7912 19.4368 16.0915 19.7372 16.1768 20.1218L17.0759 24.1666C17.3113 25.2261 18.8213 25.2261 19.0567 24.1666L19.9558 20.1218C20.041 19.7372 20.3414 19.4368 20.726 19.3516L24.7708 18.4525C25.8302 18.2171 25.8302 16.7071 24.7708 16.4717L20.726 15.5726C20.3414 15.4874 20.041 15.187 19.9558 14.8024L19.0567 10.7575C18.8213 9.69812 17.3113 9.69812 17.0759 10.7575L16.1768 14.8024Z" fill="var(--fill-0, #87E64B)"/>
<path d="M6.3659 5.67387C6.22213 6.32252 5.71554 6.82912 5.06689 6.97288L2.97889 7.43669C2.22926 7.6027 2.22926 8.67067 2.97889 8.83668L5.06689 9.30049C5.71554 9.44425 6.22213 9.95085 6.3659 10.5995L6.82971 12.6875C6.99572 13.4371 8.06368 13.4371 8.22969 12.6875L8.6935 10.5995C8.83727 9.95085 9.34386 9.44425 9.99251 9.30049L12.0805 8.83668C12.8301 8.67067 12.8301 7.6027 12.0805 7.43669L9.99251 6.97288C9.34386 6.82912 8.83727 6.32252 8.6935 5.67387L8.22969 3.58587C8.06368 2.83625 6.99572 2.83625 6.82971 3.58587L6.3659 5.67387Z" fill="var(--fill-0, #87E64B)"/>
</g>
<g id="bounding_box:c2all">
</g>
</g>
</svg>
