<svg preserveAspectRatio="none" width="100%" height="100%" overflow="visible" style="display: block;" viewBox="0 0 16.9773 24" fill="none" xmlns="http://www.w3.org/2000/svg">
<g id="Mark">
<path id="Vector" d="M9.59527 24C10.1887 24 10.6698 23.5194 10.6698 22.9266C10.6698 22.3337 10.1887 21.8531 9.59527 21.8531C9.0018 21.8531 8.52069 22.3337 8.52069 22.9266C8.52069 23.5194 9.0018 24 9.59527 24Z" fill="var(--fill-0, #87E64B)"/>
<path id="Vector_2" d="M15.7677 15.617L9.71351 16.2648C9.60277 16.2769 9.54552 16.1354 9.63374 16.0669L15.5585 11.4592C15.9432 11.1451 16.1882 10.6557 16.0831 10.1317C15.978 9.32826 15.3135 8.8042 14.4745 8.9092L8.03735 9.85044C7.9238 9.86731 7.86279 9.722 7.95383 9.65263L14.3347 4.78611C15.5941 3.80831 15.6983 1.88645 14.5449 0.768958C13.4956 -0.279157 11.8167 -0.24447 10.7674 0.803646L0.484339 11.2501C0.0995553 11.6692 -0.075005 12.2279 0.0301066 12.8223C0.204667 13.7654 1.14879 14.3945 2.09386 14.2201L7.63662 13.0904C7.75674 13.066 7.82244 13.2263 7.71827 13.292L1.5683 17.2238C0.798735 17.7132 0.449614 18.586 0.693623 19.4597C0.938571 20.6128 2.09292 21.2766 3.21161 20.9972L12.4042 18.735C12.5074 18.7097 12.5834 18.8297 12.5168 18.9122L11.0809 20.6822C10.6961 21.1716 11.3258 21.8353 11.8505 21.451L16.572 17.5735C17.4111 16.8751 16.8517 15.512 15.7677 15.617Z" fill="var(--fill-0, #87E64B)"/>
</g>
</svg>
