<svg preserveAspectRatio="none" width="100%" height="100%" overflow="visible" style="display: block;" viewBox="0 0 84.0545 18.0383" fill="none" xmlns="http://www.w3.org/2000/svg">
<g id="Logotype">
<path id="Vector" d="M7.49765 3.4359C11.0987 3.4359 14.618 5.55651 14.618 10.2805C14.618 10.6555 14.5974 11.2368 14.5561 11.6455C14.5467 11.7393 14.4669 11.8105 14.3721 11.8105H4.27204C4.56766 13.5018 5.75017 14.6024 7.6037 14.6024C8.83313 14.6024 9.61771 13.9236 10.0447 13.1118C10.0982 13.0096 10.2146 12.9561 10.3272 12.9805L14.1037 13.8027C14.2192 13.828 14.2802 13.9517 14.2332 14.0596C13.3501 16.0574 11.3417 18.0373 7.57742 18.0373C2.63342 18.0373 0 14.8161 0 10.7362C0 6.65619 2.74041 3.43497 7.49671 3.43497L7.49765 3.4359ZM10.3995 9.23335C10.2118 7.62274 9.13626 6.764 7.57836 6.764C5.53619 6.764 4.67653 7.81118 4.35368 9.23335H10.3995Z" fill="var(--fill-0, #FFF5ED)"/>
<path id="Vector_2" d="M15.9084 17.4233V4.04995C15.9084 3.94777 15.991 3.86527 16.0933 3.86527H20.0228C20.1251 3.86527 20.2077 3.94777 20.2077 4.04995V5.63713C21.1481 4.16058 22.5455 3.4359 24.3455 3.4359C26.9789 3.4359 29.236 5.234 29.236 9.26053V17.4233C29.236 17.5255 29.1534 17.608 29.0511 17.608H25.1216C25.0194 17.608 24.9368 17.5255 24.9368 17.4233V9.8774C24.9368 8.07929 23.9964 7.08555 22.6262 7.08555C21.1481 7.08555 20.2077 8.0521 20.2077 10.2533V17.4233C20.2077 17.5255 20.1251 17.608 20.0228 17.608H16.0933C15.991 17.608 15.9084 17.5255 15.9084 17.4233Z" fill="var(--fill-0, #FFF5ED)"/>
<path id="Vector_3" d="M29.4997 3.8653H33.6676C33.7492 3.8653 33.8206 3.91873 33.845 3.99655L36.9758 14.3605L40.1066 3.99655C40.1301 3.91873 40.2023 3.8653 40.284 3.8653H44.4519C44.5795 3.8653 44.6696 3.99186 44.6255 4.11279L39.8316 17.4374C39.795 17.5395 39.6974 17.6089 39.5876 17.6089H34.363C34.2542 17.6089 34.1566 17.5405 34.119 17.4374L29.3252 4.11279C29.282 3.9928 29.3712 3.8653 29.4988 3.8653H29.4997Z" fill="var(--fill-0, #FFF5ED)"/>
<path id="Vector_4" d="M53.743 17.4233V15.3261C53.071 16.722 51.5666 18.0373 49.2288 18.0373C46.5147 18.0373 44.4997 16.3198 44.4997 13.9039C44.4997 11.354 46.1928 9.44803 49.9008 9.44803H52.0509C53.2334 9.44803 53.5553 8.58929 53.4483 8.02585C53.2869 7.0593 52.4272 6.54931 51.2184 6.54931C49.6915 6.54931 48.7671 7.39211 48.6507 8.55273C48.6404 8.65866 48.5428 8.7346 48.4377 8.71679L44.7925 8.11023C44.6912 8.09335 44.6217 7.99679 44.6405 7.89648C45.2346 4.7287 48.2415 3.4359 51.3273 3.4359C54.4131 3.4359 57.8301 4.18776 57.8301 9.87834V17.4242C57.8301 17.5264 57.7475 17.6089 57.6452 17.6089H53.9307C53.8284 17.6089 53.7458 17.5264 53.7458 17.4242L53.743 17.4233ZM50.492 14.9239C52.2113 14.9239 53.3939 13.6358 53.5281 12.0252H50.9219C49.3367 12.0252 48.7718 12.6693 48.799 13.5552C48.8262 14.4945 49.5779 14.9239 50.492 14.9239Z" fill="var(--fill-0, #FFF5ED)"/>
<path id="Vector_5" d="M58.473 7.11651V4.04997C58.473 3.94779 58.5556 3.86529 58.6579 3.86529H60.1923C60.9046 3.86529 61.4818 3.28873 61.4818 2.57717V0.184694C61.4818 0.0825076 61.5644 8.40634e-06 61.6667 8.40634e-06H65.1663C65.2686 8.40634e-06 65.3512 0.0825076 65.3512 0.184694V3.86529H68.1761C68.2784 3.86529 68.361 3.94779 68.361 4.04997V7.11651C68.361 7.21869 68.2784 7.30119 68.1761 7.30119H65.3512V12.2671C65.3512 13.8852 66.728 14.5443 68.1658 14.0343C68.2615 14.0005 68.361 14.0727 68.361 14.173V17.4083C68.361 17.5274 68.2803 17.6324 68.1648 17.6595C67.7932 17.7477 67.278 17.8236 66.6689 17.8236C63.3372 17.8236 61.0529 16.6958 61.0529 11.8649V7.30213H58.6579C58.5556 7.30213 58.473 7.21963 58.473 7.11744V7.11651Z" fill="var(--fill-0, #FFF5ED)"/>
<path id="Vector_6" d="M84.0545 10.7371C84.0545 14.7636 81.2062 18.0383 76.5306 18.0383C71.855 18.0383 69.0067 14.7636 69.0067 10.7371C69.0067 6.71055 71.855 3.4359 76.5306 3.4359C81.2062 3.4359 84.0545 6.71055 84.0545 10.7371ZM79.7553 10.7371C79.7553 8.75054 78.6535 7.08649 76.5306 7.08649C74.4077 7.08649 73.3059 8.75054 73.3059 10.7371C73.3059 12.7236 74.4077 14.3877 76.5306 14.3877C78.6535 14.3877 79.7553 12.7236 79.7553 10.7371Z" fill="var(--fill-0, #FFF5ED)"/>
</g>
</svg>
