<svg preserveAspectRatio="none" width="100%" height="100%" overflow="visible" style="display: block;" viewBox="0 0 16 16" fill="none" xmlns="http://www.w3.org/2000/svg">
<g id="ico-/-24-/-ai-labs">
<g id="Icon-color">
<path d="M8.92512 8.16684C8.87809 8.37903 8.71237 8.54475 8.50018 8.59178L6.26854 9.08782C5.68403 9.21771 5.68403 10.0508 6.26854 10.1807L8.50018 10.6767C8.71237 10.7238 8.87809 10.8895 8.92512 11.1017L9.42117 13.3333C9.55106 13.9178 10.3841 13.9178 10.514 13.3333L11.0101 11.1017C11.0571 10.8895 11.2228 10.7238 11.435 10.6767L13.6667 10.1807C14.2512 10.0508 14.2512 9.21771 13.6667 9.08782L11.435 8.59178C11.2228 8.54475 11.0571 8.37903 11.0101 8.16684L10.514 5.93519C10.3841 5.35069 9.55106 5.35069 9.42117 5.93519L8.92512 8.16684Z" fill="var(--fill-0, #191919)"/>
<path d="M3.51222 3.13041C3.4329 3.48829 3.1534 3.76779 2.79552 3.84711L1.64352 4.103C1.22994 4.1946 1.22994 4.78382 1.64352 4.87541L2.79552 5.1313C3.1534 5.21062 3.4329 5.49012 3.51222 5.848L3.76811 7C3.85971 7.41359 4.44893 7.41359 4.54052 7L4.79642 5.848C4.87573 5.49012 5.15523 5.21062 5.51311 5.1313L6.66511 4.87541C7.0787 4.78382 7.0787 4.1946 6.66511 4.103L5.51311 3.84711C5.15523 3.76779 4.87573 3.48829 4.79642 3.13041L4.54052 1.97841C4.44893 1.56483 3.85971 1.56483 3.76811 1.97841L3.51222 3.13041Z" fill="var(--fill-0, #191919)"/>
</g>
<g id="bounding_box:c2all">
</g>
</g>
</svg>
