<svg preserveAspectRatio="none" width="100%" height="100%" overflow="visible" style="display: block;" viewBox="0 0 85 26" fill="none" xmlns="http://www.w3.org/2000/svg">
<g id="Kling">
<path id="Vector" fill-rule="evenodd" clip-rule="evenodd" d="M20.1009 5.24238L20.1722 5.31293L20.1742 5.31092C21.545 6.68709 21.1519 9.4522 19.1642 12.5869L23.0737 16.4977L22.9057 16.8249C22.2487 18.1068 21.3589 19.2552 20.2817 20.2116C18.863 21.4781 17.1506 22.3706 15.2998 22.808L15.2326 22.8242L15.1365 22.847L15.0673 22.8625L14.9148 22.8961C14.8728 22.9049 14.8306 22.9132 14.7884 22.9209L14.6937 22.9391C14.5929 22.9592 14.4874 22.978 14.3846 22.9955L14.2986 23.0083L14.2334 23.0163C14.14 23.0291 14.0493 23.0405 13.9566 23.0513C12.4156 23.2249 10.8553 23.0518 9.38985 22.5448C7.92438 22.0378 6.59076 21.2096 5.48652 20.1209L5.42201 20.0584C4.04853 18.6822 4.43759 15.9151 6.42793 12.7784L2.51848 8.86759L2.68647 8.54035C3.34234 7.25797 4.23311 6.1101 5.31248 5.15637C6.41549 4.17506 7.69656 3.41454 9.0862 2.91606C9.40874 2.79981 9.74606 2.69834 10.0773 2.61233C10.3504 2.53937 10.6264 2.47772 10.9045 2.42754C10.9986 2.40873 11.1048 2.38924 11.2076 2.37177C12.8112 2.12176 14.451 2.25122 15.9955 2.74975C17.54 3.24829 18.9461 4.10201 20.1009 5.24238ZM18.7792 5.41037H18.7752L18.7792 5.41238C17.4507 5.00114 15.3428 5.66571 13.1146 7.13394C14.8099 6.66155 16.4495 6.90615 17.5092 7.9665C18.5131 8.97242 18.7879 10.4991 18.4076 12.1031C18.3901 12.1891 18.3673 12.2751 18.3404 12.3631C20.1594 9.61145 20.7413 7.03718 19.5896 5.88746C19.5703 5.86707 19.5501 5.84756 19.5291 5.829L19.5204 5.82093L19.5076 5.80951C19.4946 5.8 19.4818 5.79014 19.4693 5.77994C19.4525 5.7665 19.4357 5.75307 19.4176 5.74097L19.3893 5.72081C19.2055 5.58268 18.9991 5.47763 18.7792 5.41037ZM17.8673 11.5957C17.6328 12.9948 16.8594 14.4086 15.6868 15.5798C14.5176 16.7517 13.1011 17.5258 11.7001 17.7623C10.3891 17.9841 9.25822 17.6951 8.51705 16.956C7.7779 16.2161 7.48895 15.0893 7.7107 13.7715C7.94521 12.3739 8.71662 10.9594 9.88381 9.78952C9.88381 9.78952 9.88583 9.78952 9.89053 9.7828L9.89457 9.77608C11.0658 8.61225 12.4769 7.84017 13.8746 7.60633C15.1856 7.38458 16.3138 7.67218 17.0576 8.41268C17.7968 9.15183 18.0857 10.2807 17.864 11.5964H17.868L17.8673 11.5957ZM5.98713 5.91098C5.09486 6.70067 4.34342 7.63639 3.76496 8.6781L3.75824 8.68012L7.15029 12.0641C7.42713 11.675 7.72145 11.29 8.03727 10.9097C8.14747 10.7786 8.26103 10.6429 8.37728 10.5078L8.42163 10.4574L8.5829 10.2774C8.58761 10.2733 8.59231 10.2646 8.59231 10.2646L8.62188 10.231L8.63733 10.2129C8.66532 10.1821 8.6931 10.1512 8.72065 10.1201C8.76366 10.0724 8.80666 10.0234 8.85236 9.977C8.85236 9.97229 8.85908 9.96557 8.85908 9.96557L8.93165 9.88628C8.94947 9.86892 8.96673 9.851 8.98339 9.83252C8.98541 9.82849 8.98742 9.82849 8.98742 9.82849C8.99212 9.8258 8.99212 9.82177 8.99212 9.82177C8.99481 9.81841 8.99884 9.81438 9.00153 9.80968C9.00442 9.80567 9.00756 9.80186 9.01094 9.79825C9.01924 9.79209 9.0267 9.78486 9.03311 9.77675C9.03723 9.77214 9.04149 9.76766 9.04588 9.76331C9.07343 9.73576 9.10636 9.70351 9.13592 9.67125C9.15071 9.65177 9.17019 9.63295 9.18968 9.61347L9.21723 9.58524C9.22193 9.57852 9.2347 9.56576 9.2347 9.56576L9.28644 9.51469L9.38724 9.41524L9.42083 9.37962L9.45846 9.33998C10.1851 8.61146 10.9613 7.93408 11.7814 7.31268L11.8889 7.23406H11.8896V7.23339L11.891 7.23272L11.9985 7.15343C12.1194 7.06338 12.239 6.97536 12.3613 6.88935C12.491 6.80132 12.622 6.71262 12.7511 6.62728C14.5129 5.4527 16.2385 4.74782 17.6469 4.60805C15.7627 3.47127 13.5386 3.03358 11.3641 3.37164C11.2701 3.38643 11.18 3.40188 11.0833 3.42137C11.0221 3.43212 10.969 3.44287 10.9153 3.45362L10.883 3.46034C10.3892 3.56245 9.90312 3.69873 9.42823 3.86822C8.16095 4.32205 6.99222 5.01558 5.98713 5.91098ZM6.17393 19.6243C6.36141 19.7681 6.57643 19.8756 6.817 19.9509H6.81229C8.14949 20.3594 10.2494 19.6928 12.4695 18.2286C10.7762 18.699 9.13996 18.4544 8.08028 17.3941C7.08108 16.3929 6.80624 14.8615 7.18456 13.2575C7.20404 13.1715 7.22487 13.0855 7.25108 12.9974C5.43276 15.7498 4.85219 18.3234 6.00258 19.4738C6.02812 19.4993 6.05634 19.5248 6.08591 19.5511C6.11413 19.5766 6.14235 19.6001 6.17393 19.6243ZM21.8252 16.6878V16.6892C21.2459 17.7294 20.4951 18.6643 19.6044 19.4543C18.2714 20.639 16.6594 21.4658 14.9195 21.8572L14.898 21.8626L14.8402 21.876C14.7748 21.8935 14.7087 21.9078 14.642 21.919C14.5983 21.9284 14.5546 21.9372 14.5089 21.9439C14.4153 21.9622 14.3212 21.9779 14.2267 21.9909L14.1481 22.0044L14.0587 22.0158C13.9868 22.0252 13.9142 22.0353 13.8383 22.0427C11.7867 22.2739 9.71604 21.8221 7.94723 20.7572C9.30324 20.6235 10.9542 19.9616 12.6476 18.867L12.7443 18.8038L12.8411 18.74L12.9728 18.6513H12.9735L13.2282 18.4779C13.3504 18.3919 13.4727 18.3039 13.591 18.2139C13.6663 18.1601 13.7375 18.1084 13.8101 18.0546C14.6296 17.4319 15.4059 16.7544 16.1337 16.0266C16.1512 16.0092 16.1673 15.991 16.1828 15.9742L16.2029 15.9514C16.2392 15.9178 16.2714 15.8849 16.3037 15.8526L16.3548 15.8015C16.3548 15.8015 16.3682 15.7881 16.3702 15.7814C16.3769 15.776 16.3837 15.7693 16.3897 15.7626C16.3923 15.7596 16.395 15.7567 16.3978 15.7538L16.4562 15.696L16.5013 15.649C16.516 15.6349 16.5315 15.6194 16.5463 15.6033C16.5505 15.599 16.5545 15.5945 16.5584 15.5899C16.5648 15.582 16.5723 15.575 16.5806 15.569C16.5842 15.5652 16.5876 15.5612 16.5906 15.5569C16.5935 15.5529 16.5967 15.5491 16.6 15.5455C16.6 15.5455 16.6068 15.5388 16.6108 15.5368C16.617 15.5304 16.623 15.5239 16.6289 15.5173L16.6471 15.4978L16.6645 15.481C16.6451 15.5005 16.6283 15.5213 16.6108 15.5428L16.6525 15.4991L16.6531 15.4978C16.6827 15.4669 16.7109 15.4367 16.7398 15.4078C16.7398 15.4078 16.7398 15.401 16.7465 15.401C16.7862 15.3587 16.8238 15.3164 16.8614 15.2734L16.9374 15.1887C16.9469 15.1816 16.9549 15.1727 16.9609 15.1625L17.0039 15.1108L17.0146 15.098C17.0677 15.0422 17.1174 14.9851 17.1685 14.928L17.2209 14.8675C17.3049 14.7701 17.3889 14.67 17.4722 14.5712L17.573 14.4509L17.6046 14.4119C17.6449 14.3615 17.6846 14.3118 17.7242 14.2641C17.7578 14.2238 17.7907 14.1821 17.823 14.1404C18.0378 13.8683 18.2462 13.5912 18.4479 13.3092L21.8252 16.6878ZM21.8252 16.6878C21.8252 16.6858 21.8265 16.6838 21.8292 16.6825V16.6932L21.8252 16.6892H21.8265L21.8252 16.6878ZM28.6913 6.52313H30.6211V18.652H28.6913V6.52313ZM41.49 6.52313H39.6892V18.652H41.49V6.52313ZM80.6807 6.52313H82.4815V18.652H80.6807V6.52313ZM72.3995 6.52313L67.7401 18.652H69.7284L70.8976 15.5704H76.485L77.6542 18.6513H79.6425L74.9831 6.52246L72.3995 6.52313ZM71.581 13.7668L73.6889 8.2131L75.7976 13.7668H71.581ZM43.0416 8.96368H44.8424V18.65H43.0416V8.96368ZM44.8424 6.5238H43.0416V8.05049H44.8424V6.5238ZM48.1955 10.1228C48.7714 9.47773 49.9406 8.95965 51.097 8.95965C54.2929 8.95965 55.7174 11.0541 55.7174 13.623V18.65H53.9166V13.6237C53.9166 12.0446 53.0632 10.7612 51.056 10.7612C49.6013 10.7612 48.2896 11.5608 48.1955 13.189V18.6479H46.3947V8.96167H48.1955V10.1228ZM61.7872 8.96368C62.9551 8.96368 64.0289 9.39374 64.8735 10.1195V8.96368H66.6717V19.0498C66.6717 21.6435 64.639 23.7521 62.1393 23.7521H61.6367C59.438 23.7521 57.6049 22.1226 57.1917 19.9657H59.0463C59.4098 21.1181 60.4332 21.9506 61.6387 21.9506H62.1413C63.6506 21.9506 64.8755 20.6517 64.8755 19.0498V18.0607C64.0309 18.783 62.9558 19.2178 61.7865 19.2178C59.09 19.2178 56.8974 16.917 56.8974 14.0901C56.8974 11.2625 59.0907 8.96368 61.7872 8.96368ZM61.7872 17.4115C60.0825 17.4115 58.6962 15.9218 58.6962 14.0853C58.6962 12.2496 60.0825 10.7592 61.7872 10.7592C63.4913 10.7592 64.8755 12.2509 64.8755 14.0853C64.8755 15.9198 63.49 17.4115 61.7872 17.4115ZM36.0237 6.5238H38.4199L33.0623 12.511L38.7794 18.65H36.2965L30.6231 12.5116L36.0237 6.5238Z" fill="var(--fill-0, #CCCCCC)"/>
</g>
</svg>
