<svg preserveAspectRatio="none" width="100%" height="100%" overflow="visible" style="display: block;" viewBox="0 0 86.4826 16.1273" fill="none" xmlns="http://www.w3.org/2000/svg">
<g id="Group 27392">
<path id="Vector" d="M83.2183 15.1828V0.967857H86.4825V15.1828H83.2183Z" fill="var(--fill-0, #CCCCCC)"/>
<path id="Vector_2" d="M68.8055 15.1828L73.5117 0.967857H77.7368L82.3827 15.1828H78.9982L78.0171 12.0217H72.8307L71.8494 15.1828H68.8055ZM75.4342 3.59212L73.5312 9.73538H77.3161L75.4342 3.59212Z" fill="var(--fill-0, #CCCCCC)"/>
<path id="Vector_3" d="M59.3252 15.4012C57.4227 15.4012 55.8207 14.4867 55.8207 12.2998C55.8207 9.87434 58.0635 8.95978 61.2676 8.95978H62.4492V8.54225C62.4492 7.30966 62.0686 6.6337 60.747 6.6337C59.6055 6.6337 59.0849 7.21024 58.9647 8.10489H56.2212C56.4014 5.63963 58.364 4.54622 60.9272 4.54622C63.4905 4.54622 65.3128 5.58004 65.3128 8.40307V15.1825H62.4892V13.93C61.8884 14.765 60.9673 15.4012 59.3252 15.4012ZM60.1863 13.3933C61.4679 13.3933 62.4492 12.6974 62.4492 11.5443V10.6696H61.3277C59.6456 10.6696 58.6643 11.0274 58.6643 12.1407C58.6643 12.8962 59.1249 13.3933 60.1863 13.3933Z" fill="var(--fill-0, #CCCCCC)"/>
<path id="Vector_4" d="M39.3912 15.1825V4.78474H42.2949V6.37526C42.8156 5.40111 43.937 4.54622 45.4989 4.54622C46.8808 4.54622 47.9221 5.12276 48.4227 6.35535C49.2638 5.10284 50.6255 4.54622 51.9472 4.54622C53.8896 4.54622 55.3916 5.75897 55.3916 8.52241V15.1825H52.5079V8.84052C52.5079 7.50843 51.9071 6.91205 50.8658 6.91205C49.7444 6.91205 48.8432 7.62777 48.8432 9.03928V15.1825H45.9596V8.84052C45.9596 7.50843 45.3388 6.91205 44.3175 6.91205C43.196 6.91205 42.2949 7.62777 42.2949 9.03928V15.1825H39.3912Z" fill="var(--fill-0, #CCCCCC)"/>
<path id="Vector_5" d="M32.3634 15.4012C30.3208 15.4012 28.7989 14.2084 28.7989 11.4847V4.78482H31.6826V11.0871C31.6826 12.4986 32.2633 13.1746 33.5048 13.1746C34.7264 13.1746 35.6876 12.4191 35.6876 10.8882V4.78482H38.5713V15.1825H35.6876V13.5523C35.147 14.606 34.0856 15.4012 32.3634 15.4012Z" fill="var(--fill-0, #CCCCCC)"/>
<path id="Vector_6" d="M19.3303 15.1828V0.967857H22.5745V12.6579H28.4019V15.1828H19.3303Z" fill="var(--fill-0, #CCCCCC)"/>
<path id="Vector_7" d="M9.31373e-05 12.0952L7.02571 16.127V0L9.31373e-05 4.03175V12.0952Z" fill="var(--fill-0, #CCCCCC)"/>
<path id="Vector_8" d="M7.02562 16.1273L14.0512 12.0955L7.02562 8.0638L0 12.0955L7.02562 16.1273Z" fill="var(--fill-0, #CCCCCC)"/>
</g>
</svg>
