<svg preserveAspectRatio="none" width="100%" height="100%" overflow="visible" style="display: block;" viewBox="0 0 20 20" fill="none" xmlns="http://www.w3.org/2000/svg">
<g id="ico-/-24-/-media-&#38;-editing-/-magic_wand">
<path id="Icon-color" d="M14.0417 7.725L4.39167 17.375C4.31343 17.4539 4.20693 17.4982 4.09583 17.4982C3.98473 17.4982 3.87824 17.4539 3.8 17.375L2.625 16.2C2.54612 16.1218 2.50175 16.0153 2.50175 15.9042C2.50175 15.7931 2.54612 15.6866 2.625 15.6083L12.275 5.95833C12.3532 5.87945 12.4597 5.83508 12.5708 5.83508C12.6819 5.83508 12.7884 5.87945 12.8667 5.95833L14.0417 7.13333C14.1205 7.21157 14.1649 7.31807 14.1649 7.42917C14.1649 7.54027 14.1205 7.64676 14.0417 7.725ZM6.86667 4.91667C7.5433 5.24382 8.08952 5.79003 8.41667 6.46667C8.4762 6.58375 8.59382 6.66004 8.725 6.66667H8.775C8.90618 6.66004 9.0238 6.58375 9.08333 6.46667C9.41048 5.79003 9.9567 5.24382 10.6333 4.91667C10.7504 4.85713 10.8267 4.73952 10.8333 4.60833V4.55833C10.8267 4.42715 10.7504 4.30954 10.6333 4.25C9.96116 3.92345 9.41821 3.38051 9.09167 2.70833C9.02627 2.57977 8.89424 2.49881 8.75 2.49881C8.60576 2.49881 8.47373 2.57977 8.40833 2.70833C8.08178 3.38051 7.53884 3.92345 6.86667 4.25C6.74959 4.30954 6.67329 4.42715 6.66667 4.55833V4.60833C6.67329 4.73952 6.74959 4.85713 6.86667 4.91667ZM17.35 3.9C16.8088 3.64082 16.3712 3.20614 16.1083 2.66667C16.0538 2.56524 15.9485 2.50142 15.8333 2.5C15.7182 2.50142 15.6129 2.56524 15.5583 2.66667C15.2987 3.20556 14.8639 3.64038 14.325 3.9C14.2168 3.94146 14.1513 4.05183 14.1667 4.16667C14.1628 4.27265 14.2263 4.36952 14.325 4.40833C14.8668 4.67071 15.3043 5.10819 15.5667 5.65C15.6085 5.76086 15.7149 5.83399 15.8333 5.83333C15.938 5.83333 16.0341 5.77566 16.0833 5.68333C16.3435 5.13997 16.7816 4.70186 17.325 4.44167C17.4355 4.39609 17.5055 4.28607 17.5 4.16667C17.5064 4.0561 17.4478 3.95193 17.35 3.9ZM13.5333 11.5833C14.21 11.9105 14.7562 12.4567 15.0833 13.1333C15.1429 13.2504 15.2605 13.3267 15.3917 13.3333H15.4417C15.5728 13.3267 15.6905 13.2504 15.75 13.1333C16.0772 12.4567 16.6234 11.9105 17.3 11.5833C17.4171 11.5238 17.4934 11.4062 17.5 11.275V11.225C17.4934 11.0938 17.4171 10.9762 17.3 10.9167C16.6278 10.5901 16.0849 10.0472 15.7583 9.375C15.6929 9.24644 15.5609 9.16547 15.4167 9.16547C15.2724 9.16547 15.1404 9.24644 15.075 9.375C14.7485 10.0472 14.2055 10.5901 13.5333 10.9167C13.4163 10.9762 13.34 11.0938 13.3333 11.225V11.275C13.34 11.4062 13.4163 11.5238 13.5333 11.5833Z" fill="var(--fill-0, #8C8C8C)"/>
<g id="bounding_box:c2all">
</g>
</g>
</svg>
