<svg preserveAspectRatio="none" width="100%" height="100%" overflow="visible" style="display: block;" viewBox="0 0 25.8032 25.8032" fill="none" xmlns="http://www.w3.org/2000/svg">
<g id="minimax 1" clip-path="url(#clip0_0_20)">
<path id="Vector" fill-rule="evenodd" clip-rule="evenodd" d="M17.5009 2.15006C18.7438 2.15006 19.7512 3.14671 19.7512 4.37559V17.8158C19.7598 18.0218 19.848 18.2163 19.9972 18.3585C20.1464 18.5007 20.345 18.5794 20.5511 18.5781C20.757 18.5791 20.9553 18.5003 21.1042 18.3581C21.2532 18.2159 21.3413 18.0216 21.3499 17.8158V9.78243C21.3514 9.49158 21.4103 9.20389 21.523 8.93577C21.6357 8.66765 21.8002 8.42437 22.0069 8.2198C22.2137 8.01524 22.4587 7.85341 22.728 7.74354C22.9973 7.63367 23.2857 7.57793 23.5765 7.57948C23.8674 7.57793 24.1558 7.63371 24.4252 7.74364C24.6946 7.85358 24.9397 8.01551 25.1464 8.22019C25.3532 8.42486 25.5176 8.66827 25.6303 8.93652C25.743 9.20476 25.8017 9.49257 25.8031 9.78351V16.8375C25.802 17.0223 25.7275 17.1992 25.5961 17.3292C25.4646 17.4592 25.287 17.5318 25.1021 17.5309C25.0105 17.5315 24.9196 17.514 24.8348 17.4795C24.7499 17.4449 24.6727 17.394 24.6075 17.3296C24.5423 17.2652 24.4904 17.1886 24.4548 17.1042C24.4192 17.0197 24.4006 16.9291 24.4001 16.8375V9.78351C24.3995 9.67592 24.3777 9.5695 24.336 9.47032C24.2944 9.37114 24.2335 9.28114 24.1571 9.20547C24.0806 9.12979 23.99 9.06992 23.8903 9.02927C23.7907 8.98862 23.6841 8.96799 23.5765 8.96856C23.4689 8.96799 23.3623 8.98862 23.2627 9.02927C23.163 9.06992 23.0724 9.12979 22.9959 9.20547C22.9195 9.28114 22.8586 9.37114 22.817 9.47032C22.7753 9.5695 22.7535 9.67592 22.7529 9.78351V17.8169C22.7514 18.1045 22.6932 18.389 22.5817 18.6541C22.4702 18.9192 22.3076 19.1598 22.1031 19.362C21.8987 19.5643 21.6564 19.7243 21.3901 19.833C21.1238 19.9416 20.8387 19.9967 20.5511 19.9951C20.2635 19.9967 19.9784 19.9416 19.7121 19.833C19.4458 19.7243 19.2035 19.5643 18.999 19.362C18.7945 19.1598 18.6319 18.9192 18.5204 18.6541C18.4089 18.389 18.3508 18.1045 18.3492 17.8169V4.37774C18.3403 4.15936 18.247 3.95295 18.089 3.80195C17.931 3.65095 17.7206 3.56714 17.502 3.56816C17.2834 3.56685 17.0729 3.65039 16.9147 3.80119C16.7564 3.95199 16.6629 4.15828 16.6537 4.37666L16.6526 21.4756C16.6492 22.0562 16.4154 22.6118 16.0025 23.02C15.5896 23.4283 15.0314 23.6559 14.4508 23.6527C14.1632 23.6543 13.8781 23.5992 13.6118 23.4906C13.3455 23.3819 13.1032 23.2219 12.8987 23.0197C12.6942 22.8174 12.5316 22.5768 12.4201 22.3117C12.3086 22.0466 12.2504 21.7621 12.2489 21.4745V19.3952C12.2489 19.0125 12.5628 18.7017 12.9499 18.7017C13.3369 18.7017 13.6509 19.0125 13.6509 19.3952V21.4745C13.6509 21.7573 13.8035 22.0185 14.0508 22.1604C14.2981 22.3013 14.6034 22.3013 14.8507 22.1604C14.9721 22.0917 15.073 21.9919 15.1432 21.8714C15.2135 21.7509 15.2506 21.614 15.2507 21.4745V4.37559C15.2507 3.14671 16.2581 2.15006 17.5009 2.15006ZM11.4006 2.15006C12.6435 2.15006 13.6509 3.14671 13.6509 4.37559V16.7643C13.6504 16.8559 13.632 16.9465 13.5965 17.031C13.561 17.1154 13.5093 17.192 13.4442 17.2564C13.379 17.3208 13.3019 17.3718 13.2171 17.4063C13.1323 17.4409 13.0415 17.4584 12.9499 17.4578C12.8583 17.4584 12.7675 17.4409 12.6827 17.4063C12.5979 17.3718 12.5207 17.3208 12.4556 17.2564C12.3905 17.192 12.3387 17.1154 12.3033 17.031C12.2678 16.9465 12.2493 16.8559 12.2489 16.7643V4.37559C12.2475 4.15194 12.1573 3.93799 11.9983 3.78075C11.8392 3.62351 11.6243 3.53584 11.4006 3.53698C11.177 3.53584 10.962 3.62351 10.8029 3.78075C10.6439 3.93799 10.5538 4.15194 10.5523 4.37559V19.4414C10.5489 20.0285 10.3126 20.5901 9.89529 21.003C9.47798 21.4159 8.91384 21.6462 8.32681 21.6433C7.7396 21.6465 7.17517 21.4163 6.75763 21.0034C6.34009 20.5905 6.10362 20.0286 6.10021 19.4414V9.78351C6.09965 9.67592 6.0779 9.5695 6.0362 9.47032C5.99451 9.37114 5.93369 9.28114 5.85722 9.20547C5.78074 9.12979 5.69011 9.06992 5.5905 9.02927C5.49089 8.98862 5.38424 8.96799 5.27666 8.96856C5.16907 8.96799 5.06243 8.98862 4.96281 9.02927C4.8632 9.06992 4.77257 9.12979 4.6961 9.20547C4.61962 9.28114 4.5588 9.37114 4.51711 9.47032C4.47542 9.5695 4.45367 9.67592 4.4531 9.78351V13.869C4.45156 14.1599 4.39273 14.4476 4.28 14.7157C4.16726 14.9838 4.00282 15.2271 3.79606 15.4316C3.5893 15.6362 3.34427 15.798 3.07497 15.9079C2.80566 16.0178 2.51735 16.0735 2.2265 16.072C1.93565 16.0735 1.64735 16.0178 1.37804 15.9079C1.10874 15.798 0.863708 15.6362 0.656948 15.4316C0.450188 15.2271 0.285746 14.9838 0.173009 14.7157C0.0602732 14.4476 0.00145128 14.1599 -9.76563e-05 13.869L-9.76563e-05 12.3875C-9.76563e-05 12.0037 0.313841 11.6929 0.700889 11.6929C1.08794 11.6929 1.40295 12.0047 1.40295 12.3875V13.869C1.40295 14.3184 1.77172 14.6829 2.2265 14.6829C2.68128 14.6829 3.05006 14.3184 3.05006 13.869V9.78243C3.05347 9.19541 3.28979 8.63375 3.7071 8.22088C4.12441 7.80801 4.68856 7.5777 5.27558 7.58056C5.86279 7.57741 6.42722 7.8076 6.84476 8.2205C7.2623 8.6334 7.49877 9.19522 7.50218 9.78243V19.4414C7.50218 19.8919 7.87095 20.2564 8.32681 20.2564C8.78159 20.2564 9.15036 19.8919 9.15036 19.4414V4.37559C9.15036 3.14671 10.1578 2.15006 11.4006 2.15006Z" fill="var(--fill-0, #CCCCCC)"/>
</g>
<defs>
<clipPath id="clip0_0_20">
<rect width="25.8032" height="25.8032" fill="white"/>
</clipPath>
</defs>
</svg>
