<svg preserveAspectRatio="none" width="100%" height="100%" overflow="visible" style="display: block;" viewBox="0 0 18 18" fill="none" xmlns="http://www.w3.org/2000/svg">
<g id="ico-/-24-/-arrows-/-chevron_down">
<path id="Icon-color" d="M9.54 11.835C9.43461 11.9405 9.29163 11.9999 9.1425 12H8.8575C8.70869 11.9983 8.56629 11.9392 8.46 11.835L4.6125 7.98C4.54151 7.90959 4.50158 7.81374 4.50158 7.71375C4.50158 7.61376 4.54151 7.51791 4.6125 7.4475L5.145 6.915C5.21412 6.84445 5.30873 6.8047 5.4075 6.8047C5.50627 6.8047 5.60088 6.84445 5.67 6.915L9 10.2525L12.33 6.915C12.4004 6.84401 12.4963 6.80408 12.5962 6.80408C12.6962 6.80408 12.7921 6.84401 12.8625 6.915L13.3875 7.4475C13.4585 7.51791 13.4984 7.61376 13.4984 7.71375C13.4984 7.81374 13.4585 7.90959 13.3875 7.98L9.54 11.835Z" fill="var(--fill-0, white)"/>
<g id="bounding_box:c2all">
</g>
</g>
</svg>
