<svg preserveAspectRatio="none" width="100%" height="100%" overflow="visible" style="display: block;" viewBox="0 0 89.0667 20" fill="none" xmlns="http://www.w3.org/2000/svg">
<g id="Runway_White_Logo_SVG 1">
<path id="Vector" d="M7.15478 4.82461C5.50462 4.82461 4.62963 5.80101 4.62963 7.53555V15.0316H0.0965172V0.338672H2.64182L4.23251 2.03381C4.98856 0.93708 6.12158 0.338672 7.65278 0.338672H9.02472V4.82461H7.15582H7.15478Z" fill="var(--fill-0, #CCCCCC)"/>
<path id="Vector_2" d="M10.1164 0.338672H14.6496V8.59285C14.6496 10.1283 15.6435 11.1845 17.1152 11.1845C18.587 11.1845 19.5607 10.1283 19.5607 8.59285V0.338672H24.0939V15.0327H21.5485L19.9982 13.378C18.9448 14.6345 17.4529 15.3713 15.704 15.3713C12.4037 15.3713 10.1175 12.9585 10.1175 9.42979V0.338672H10.1164Z" fill="var(--fill-0, #CCCCCC)"/>
<path id="Vector_3" d="M39.5231 15.0326H34.99V6.83803C34.99 5.26323 33.9759 4.18672 32.465 4.18672C30.9538 4.18672 29.9399 5.26323 29.9399 6.83803V15.0326H25.4067V0.3386H27.9519L29.5226 2.0135C30.5759 0.737893 32.0868 0 33.8772 0C37.2178 0 39.5242 2.45219 39.5242 6.02133V15.0326H39.5231Z" fill="var(--fill-0, #CCCCCC)"/>
<path id="Vector_4" d="M39.0266 0.338672H43.7581L45.985 8.67272L48.6693 0.338672H51.9695L54.6541 8.71213L56.8807 0.338672H61.2354L56.6229 15.0327H52.6663L50.0615 6.95843L47.4365 15.0327H43.7189L39.0266 0.338672Z" fill="var(--fill-0, #CCCCCC)"/>
<path id="Vector_5" d="M67.4189 0C71.2757 0 73.6024 2.13382 73.6024 5.68168V15.0326H71.0378L69.7064 13.5973C68.7122 14.7536 67.281 15.3712 65.5512 15.3712C62.4696 15.3712 60.3024 13.4578 60.3024 10.7458C60.3024 7.85491 62.4101 6.18 66.0682 6.18H69.1901V5.70192C69.1901 4.44547 68.4946 3.76827 67.1821 3.76827C66.0088 3.76827 65.2538 4.36667 65.1741 5.36331H60.7408C60.9989 2.11359 63.624 0 67.421 0H67.4189ZM69.188 9.68952V9.05171H66.544C65.4109 9.05171 64.7546 9.57027 64.7546 10.4668C64.7546 11.4241 65.5298 12.0022 66.8221 12.0022C68.3533 12.0022 69.188 11.2047 69.188 9.68952Z" fill="var(--fill-0, #CCCCCC)"/>
<path id="Vector_6" d="M81.0387 19.9168H76.2475L78.8118 13.756L72.8664 0.338672H78.1555L81.2371 8.33307L84.1403 0.338672H88.9315L81.0387 19.9168Z" fill="var(--fill-0, #CCCCCC)"/>
</g>
</svg>
