<svg preserveAspectRatio="none" width="100%" height="100%" overflow="visible" style="display: block;" viewBox="0 0 23.5199 24.0002" fill="none" xmlns="http://www.w3.org/2000/svg">
<g id="Vector">
<path id="Vector_2" d="M12 9.81836V14.4656H18.4582C18.1746 15.9602 17.3236 17.2257 16.0472 18.0766L19.9417 21.0984C22.2108 19.0039 23.5199 15.9276 23.5199 12.273C23.5199 11.4221 23.4436 10.6039 23.3017 9.81849L12 9.81836Z" fill="var(--fill-0, #4285F4)"/>
<path id="Vector_3" d="M5.27461 14.2842L4.39625 14.9566L1.28711 17.3783C3.26165 21.2947 7.30862 24.0002 11.9995 24.0002C15.2394 24.0002 17.9557 22.9311 19.9412 21.0984L16.0467 18.0765C14.9776 18.7965 13.614 19.2329 11.9995 19.2329C8.87951 19.2329 6.22868 17.1275 5.27952 14.2911L5.27461 14.2842Z" fill="var(--fill-0, #34A853)"/>
<path id="Vector_4" d="M1.28718 6.62158C0.469042 8.23606 0 10.0579 0 11.9997C0 13.9415 0.469042 15.7633 1.28718 17.3778C1.28718 17.3886 5.27997 14.2796 5.27997 14.2796C5.03998 13.5596 4.89812 12.796 4.89812 11.9996C4.89812 11.2031 5.03998 10.4395 5.27997 9.71951L1.28718 6.62158Z" fill="var(--fill-0, #FBBC05)"/>
<path id="Vector_5" d="M11.9998 4.77818C13.7671 4.77818 15.338 5.38907 16.5925 6.56727L20.0289 3.13095C17.9452 1.18917 15.2398 0 11.9998 0C7.30893 0 3.26171 2.69454 1.28717 6.62183L5.27984 9.72001C6.22888 6.88362 8.87982 4.77818 11.9998 4.77818Z" fill="var(--fill-0, #EA4335)"/>
</g>
</svg>
