<svg preserveAspectRatio="none" width="100%" height="100%" overflow="visible" style="display: block;" viewBox="0 0 19.102 19.5" fill="none" xmlns="http://www.w3.org/2000/svg">
<g id="Vector">
<path d="M19.102 9.97159C19.102 9.28023 19.04 8.61545 18.9248 7.97727H9.74594V11.7532H14.991C14.7607 12.9675 14.0696 13.9957 13.033 14.687V17.1423H16.196C18.0388 15.4405 19.102 12.9409 19.102 9.97159Z" fill="var(--fill-0, #CCCCCC)"/>
<path d="M9.74594 19.5C12.3773 19.5 14.5835 18.6314 16.196 17.1423L13.033 14.687C12.1647 15.272 11.0572 15.6266 9.74594 15.6266C7.21199 15.6266 5.05903 13.9159 4.28821 11.6114H1.04547V14.1286C2.64912 17.3107 5.93616 19.5 9.74594 19.5Z" fill="var(--fill-0, #CCCCCC)"/>
<path d="M4.28821 11.6025C4.09329 11.0175 3.97811 10.397 3.97811 9.75C3.97811 9.10295 4.09329 8.4825 4.28821 7.8975V5.38023H1.04547C0.380978 6.69205 0 8.17227 0 9.75C0 11.3277 0.380978 12.808 1.04547 14.1198L3.57056 12.152L4.28821 11.6025Z" fill="var(--fill-0, #CCCCCC)"/>
<path d="M9.74594 3.88227C11.1813 3.88227 12.4571 4.37864 13.476 5.33591L16.2669 2.54386C14.5746 0.966136 12.3773 0 9.74594 0C5.93616 0 2.64912 2.18932 1.04547 5.38023L4.28821 7.8975C5.05903 5.59295 7.21199 3.88227 9.74594 3.88227Z" fill="var(--fill-0, #CCCCCC)"/>
</g>
</svg>
