<svg preserveAspectRatio="none" width="100%" height="100%" overflow="visible" style="display: block;" viewBox="0 0 25 25" fill="none" xmlns="http://www.w3.org/2000/svg">
<g id="qwen 1">
<path id="Vector" fill-rule="evenodd" clip-rule="evenodd" d="M13.1297 1.39588C13.539 2.11463 13.9463 2.83546 14.3526 3.55734C14.369 3.58621 14.3928 3.61019 14.4215 3.62685C14.4503 3.6435 14.4829 3.65223 14.5161 3.65213H20.2995C20.4807 3.65213 20.6349 3.76671 20.7641 3.99275L22.2786 6.66984C22.4765 7.02088 22.5286 7.16775 22.3036 7.54171C22.0328 7.98963 21.7693 8.44171 21.512 8.89588L21.1297 9.58129C21.0193 9.78546 20.8974 9.87296 21.088 10.1146L23.8505 14.9448C24.0297 15.2584 23.9661 15.4594 23.8057 15.7469C23.3505 16.5646 22.887 17.3761 22.4151 18.1844C22.2495 18.4678 22.0484 18.575 21.7068 18.5698C20.8974 18.5532 20.0901 18.5594 19.2828 18.5865C19.2655 18.5874 19.2487 18.5926 19.2339 18.6017C19.2192 18.6108 19.207 18.6235 19.1984 18.6386C18.267 20.2889 17.3278 21.9347 16.3807 23.5761C16.2047 23.8813 15.9849 23.9542 15.6255 23.9553C14.587 23.9584 13.5401 23.9594 12.4828 23.9573C12.3844 23.9571 12.2877 23.9308 12.2027 23.8813C12.1176 23.8317 12.0472 23.7606 11.9984 23.675L10.6078 21.2553C10.5997 21.2394 10.5873 21.2262 10.572 21.2172C10.5567 21.2081 10.5391 21.2036 10.5213 21.2042H5.19009C4.89322 21.2355 4.61405 21.2032 4.35155 21.1084L2.68176 18.223C2.63237 18.1375 2.6062 18.0407 2.60584 17.942C2.60547 17.8433 2.63093 17.7463 2.67967 17.6605L3.93697 15.4521C3.95488 15.4209 3.9643 15.3855 3.9643 15.3495C3.9643 15.3135 3.95488 15.2781 3.93697 15.2469C3.28204 14.113 2.63099 12.9769 1.98384 11.8386L1.16092 10.3855C0.994258 10.0625 0.980717 9.86879 1.25988 9.38025C1.74426 8.53338 2.22551 7.68754 2.70467 6.84275C2.84217 6.599 3.02134 6.49484 3.31301 6.4938C4.21196 6.49001 5.11093 6.48966 6.00988 6.49275C6.03259 6.49258 6.05485 6.48642 6.07442 6.4749C6.09399 6.46338 6.11017 6.4469 6.12134 6.42713L9.04426 1.32817C9.08855 1.2506 9.15251 1.18607 9.22968 1.14109C9.30685 1.0961 9.39452 1.07224 9.48384 1.07192C10.0297 1.07088 10.5807 1.07192 11.1328 1.06567L12.1922 1.04171C12.5474 1.03859 12.9463 1.07505 13.1297 1.39588ZM9.55467 1.81567C9.5437 1.81566 9.53291 1.81855 9.5234 1.82403C9.51389 1.82952 9.506 1.83741 9.50051 1.84692L6.51509 7.07088C6.50076 7.0955 6.48024 7.11594 6.45558 7.13019C6.43091 7.14444 6.40295 7.15201 6.37447 7.15213H3.38905C3.33072 7.15213 3.31613 7.17817 3.34634 7.22921L9.39843 17.8084C9.42447 17.8521 9.41197 17.873 9.36301 17.874L6.45155 17.8896C6.40899 17.8882 6.36688 17.8988 6.33004 17.9202C6.29321 17.9415 6.26312 17.9728 6.24322 18.0105L4.86822 20.4167C4.82238 20.498 4.84634 20.5396 4.93905 20.5396L10.8932 20.548C10.9411 20.548 10.9765 20.5688 11.0015 20.6115L12.463 23.1678C12.5109 23.2521 12.5588 23.2532 12.6078 23.1678L17.8224 14.0428L18.638 12.6032C18.643 12.5943 18.6502 12.5869 18.659 12.5817C18.6678 12.5766 18.6778 12.5738 18.688 12.5738C18.6982 12.5738 18.7082 12.5766 18.717 12.5817C18.7258 12.5869 18.733 12.5943 18.738 12.6032L20.2213 15.2386C20.2325 15.2583 20.2487 15.2747 20.2683 15.286C20.2879 15.2974 20.3102 15.3033 20.3328 15.3032L23.2109 15.2823C23.2183 15.2824 23.2256 15.2805 23.232 15.2768C23.2384 15.2732 23.2437 15.2679 23.2474 15.2615C23.2509 15.2551 23.2528 15.248 23.2528 15.2407C23.2528 15.2334 23.2509 15.2262 23.2474 15.2198L20.2265 9.92192C20.2157 9.90421 20.2099 9.88384 20.2099 9.86307C20.2099 9.84229 20.2157 9.82192 20.2265 9.80421L20.5318 9.27609L21.6984 7.21671C21.7234 7.174 21.7109 7.15213 21.662 7.15213H9.58384C9.52238 7.15213 9.5078 7.12505 9.53905 7.07192L11.0328 4.46254C11.044 4.44476 11.0499 4.42418 11.0499 4.40317C11.0499 4.38216 11.044 4.36158 11.0328 4.34379L9.60988 1.84796C9.60444 1.83811 9.59644 1.8299 9.58672 1.82422C9.577 1.81853 9.56593 1.81558 9.55467 1.81567ZM16.1068 10.1698C16.1547 10.1698 16.1672 10.1907 16.1422 10.2323L15.2755 11.7584L12.5536 16.5344C12.5485 16.5437 12.541 16.5514 12.5318 16.5568C12.5226 16.5621 12.5122 16.5648 12.5016 16.5646C12.491 16.5646 12.4806 16.5618 12.4715 16.5565C12.4623 16.5512 12.4547 16.5436 12.4495 16.5344L8.85259 10.2511C8.83176 10.2157 8.84217 10.1969 8.88176 10.1948L9.10676 10.1823L16.1088 10.1698H16.1068Z" fill="var(--fill-0, #CCCCCC)"/>
</g>
</svg>
