<svg preserveAspectRatio="none" width="100%" height="100%" overflow="visible" style="display: block;" viewBox="0 0 15.7596 16" fill="none" xmlns="http://www.w3.org/2000/svg">
<path id="Vector" fill-rule="evenodd" clip-rule="evenodd" d="M13.4804 2.29588L13.535 2.34997L13.5365 2.34843C14.5875 3.40353 14.2861 5.52353 12.7622 7.92687L15.7596 10.9253L15.6308 11.1762C15.127 12.159 14.4448 13.0395 13.619 13.7727C12.5312 14.7437 11.2184 15.428 9.79937 15.7634L9.74785 15.7757L9.67418 15.7933L9.62111 15.8051L9.50416 15.8309C9.47196 15.8376 9.43967 15.844 9.40731 15.8499L9.33467 15.8638C9.25739 15.8793 9.17651 15.8937 9.09768 15.9071L9.03174 15.9169L8.98176 15.9231C8.91015 15.9329 8.8406 15.9416 8.76951 15.9499C7.58806 16.0829 6.39181 15.9503 5.26824 15.5615C4.14467 15.1728 3.12219 14.5379 2.27558 13.7031L2.22612 13.6552C1.17308 12.6001 1.47137 10.4786 2.99736 8.0737L0 5.07531L0.128797 4.82442C0.631653 3.84123 1.31459 2.96116 2.14215 2.22994C2.98781 1.47757 3.97 0.894485 5.03543 0.512304C5.28272 0.423177 5.54135 0.345383 5.79533 0.279439C6.00469 0.223502 6.21627 0.176236 6.42953 0.137763C6.50166 0.123338 6.58306 0.108397 6.66188 0.0950026C7.89134 -0.0966787 9.14863 0.00257665 10.3328 0.3848C11.5169 0.767024 12.595 1.42157 13.4804 2.29588ZM12.467 2.42468H12.4639L12.467 2.42622C11.4485 2.11093 9.83234 2.62045 8.12398 3.74613C9.42379 3.38395 10.6809 3.57148 11.4933 4.38445C12.263 5.15568 12.4737 6.32619 12.1821 7.55594C12.1687 7.62188 12.1512 7.68782 12.1306 7.75531C13.5252 5.64562 13.9713 3.67194 13.0883 2.79046C13.0735 2.77483 13.0581 2.75987 13.042 2.74564L13.0353 2.73946L13.0255 2.7307C13.0155 2.72341 13.0057 2.71585 12.9961 2.70803C12.9832 2.69773 12.9703 2.68742 12.9564 2.67815L12.9348 2.66269C12.7939 2.55679 12.6356 2.47625 12.467 2.42468ZM11.7679 7.16697C11.5881 8.23959 10.9951 9.32354 10.0961 10.2215C9.19969 11.12 8.11367 11.7135 7.03951 11.8948C6.03438 12.0649 5.16732 11.8433 4.59907 11.2766C4.03237 10.7094 3.81084 9.84543 3.98085 8.83515C4.16065 7.76356 4.75208 6.67909 5.64696 5.78215C5.64696 5.78215 5.64851 5.78215 5.65211 5.777L5.6552 5.77185C6.55317 4.87954 7.63507 4.28759 8.70665 4.10831C9.71178 3.9383 10.5768 4.1588 11.1471 4.72653C11.7138 5.29324 11.9353 6.15875 11.7653 7.16749H11.7684L11.7679 7.16697ZM2.65939 2.80849C1.9753 3.41395 1.39917 4.13136 0.955671 4.93003L0.950519 4.93158L3.55118 7.52606C3.76344 7.22776 3.98909 6.93256 4.23123 6.64096C4.31572 6.5405 4.40279 6.43644 4.49191 6.33288L4.52591 6.29424L4.64956 6.15617C4.65317 6.15308 4.65677 6.14639 4.65677 6.14639L4.67944 6.12063L4.69129 6.10672C4.71275 6.08317 4.73404 6.05947 4.75517 6.03562C4.78814 5.99904 4.82112 5.96143 4.85615 5.92589C4.85615 5.92228 4.8613 5.91713 4.8613 5.91713L4.91694 5.85634C4.93061 5.84303 4.94384 5.82928 4.95661 5.81512C4.95816 5.81203 4.9597 5.81203 4.9597 5.81203C4.96331 5.80997 4.96331 5.80688 4.96331 5.80688C4.96537 5.8043 4.96846 5.80121 4.97052 5.7976C4.97273 5.79453 4.97514 5.79161 4.97773 5.78885C4.9841 5.78412 4.98982 5.77858 4.99473 5.77236C4.99789 5.76882 5.00115 5.76539 5.00452 5.76206C5.02565 5.74093 5.05089 5.71621 5.07356 5.69148C5.08489 5.67654 5.09983 5.66211 5.11477 5.64717L5.1359 5.62553C5.1395 5.62038 5.14929 5.61059 5.14929 5.61059L5.18896 5.57144L5.26624 5.49519L5.292 5.46789L5.32085 5.43749C5.87797 4.87894 6.47306 4.3596 7.10185 3.88317L7.18428 3.82289H7.18479V3.82238L7.18582 3.82186L7.26825 3.76107C7.36099 3.69204 7.45269 3.62455 7.54645 3.5586C7.64588 3.49111 7.74635 3.42311 7.84526 3.35768C9.19608 2.45713 10.5191 1.9167 11.5989 1.80954C10.1543 0.937979 8.44907 0.602409 6.78192 0.8616C6.70979 0.872934 6.64076 0.884784 6.56657 0.899724C6.51969 0.907967 6.47899 0.91621 6.43777 0.924453L6.41304 0.929605C6.03446 1.00789 5.66177 1.11238 5.29766 1.24232C4.32605 1.59027 3.42999 2.122 2.65939 2.80849ZM2.80262 13.3224C2.94635 13.4327 3.11121 13.5151 3.29565 13.5728H3.29204C4.31726 13.886 5.92722 13.375 7.6294 12.2524C6.33113 12.613 5.07665 12.4255 4.2642 11.6125C3.49812 10.8449 3.28741 9.67078 3.57746 8.44103C3.5924 8.37508 3.60837 8.30914 3.62846 8.24165C2.23436 10.3519 1.78924 12.325 2.67124 13.207C2.69082 13.2266 2.71246 13.2462 2.73513 13.2663C2.75676 13.2858 2.7784 13.3039 2.80262 13.3224ZM14.8023 11.0711V11.0721C14.3582 11.8696 13.7826 12.5864 13.0997 13.1921C12.0777 14.1004 10.8417 14.7343 9.50777 15.0344L9.49128 15.0385L9.44698 15.0488C9.39687 15.0622 9.34615 15.0732 9.295 15.0818C9.26151 15.089 9.22802 15.0957 9.19299 15.1008C9.12122 15.1149 9.04906 15.1269 8.97661 15.1369L8.91634 15.1472L8.84782 15.156C8.79269 15.1632 8.73705 15.1709 8.67883 15.1766C7.10586 15.3539 5.51833 15.0075 4.16219 14.191C5.20184 14.0885 6.46765 13.581 7.76592 12.7418L7.84011 12.6934L7.9143 12.6444L8.01527 12.5764H8.01579L8.21105 12.4435C8.30481 12.3776 8.39857 12.3101 8.48925 12.241C8.54695 12.1998 8.60156 12.1602 8.6572 12.1189C9.28551 11.6415 9.88071 11.1221 10.4387 10.5641C10.4521 10.5507 10.4645 10.5368 10.4763 10.5239L10.4918 10.5064C10.5196 10.4807 10.5443 10.4554 10.5691 10.4307L10.6082 10.3915C10.6082 10.3915 10.6185 10.3812 10.6201 10.3761C10.6252 10.3719 10.6304 10.3668 10.635 10.3616C10.637 10.3594 10.6391 10.3571 10.6412 10.3549L10.686 10.3106L10.7205 10.2746C10.7319 10.2638 10.7437 10.2519 10.755 10.2395C10.7583 10.2362 10.7613 10.2328 10.7643 10.2292C10.7693 10.2232 10.775 10.2178 10.7813 10.2133C10.7841 10.2104 10.7867 10.2073 10.789 10.204C10.7913 10.2009 10.7937 10.198 10.7963 10.1952C10.7963 10.1952 10.8014 10.1901 10.8045 10.1885C10.8092 10.1837 10.8139 10.1787 10.8184 10.1736L10.8323 10.1587L10.8457 10.1458C10.8308 10.1607 10.8179 10.1767 10.8045 10.1932L10.8364 10.1597L10.837 10.1587C10.8596 10.135 10.8813 10.1118 10.9034 10.0896C10.9034 10.0896 10.9034 10.0845 10.9086 10.0845C10.939 10.052 10.9678 10.0196 10.9967 9.98659L11.0549 9.92167C11.0622 9.91624 11.0683 9.90941 11.0729 9.90158L11.1059 9.86191L11.1141 9.85212C11.1548 9.80936 11.1929 9.76557 11.2321 9.72178L11.2723 9.67541C11.3367 9.60071 11.4011 9.52395 11.465 9.44822L11.5422 9.356L11.5665 9.32612C11.5974 9.28748 11.6278 9.24935 11.6582 9.21278C11.6839 9.18187 11.7092 9.14992 11.7339 9.11798C11.8986 8.90936 12.0583 8.69687 12.213 8.4807L14.8023 11.0711ZM14.8023 11.0711C14.8023 11.0695 14.8034 11.068 14.8054 11.0669V11.0752L14.8023 11.0721H14.8034L14.8023 11.0711Z" fill="var(--fill-0, #191919)"/>
</svg>
